<svg xmlns="http://www.w3.org/2000/svg" xmlns:xlink="http://www.w3.org/1999/xlink" viewBox="0 0 66 59" fill="#fff" fill-rule="evenodd" stroke="#000" stroke-linecap="round" stroke-linejoin="round" width="300" height="300" font-family="Roboto" font-size="14px" text-anchor="middle"><defs><style type="text/css"></style></defs><use xlink:href="#A" x=".5" y=".5"></use><symbol id="A" overflow="visible"><g stroke="none" fill-rule="nonzero"><path d="M63.997 42.032a2.96 2.96 0 0 1-.866 2.095l-13.27 13.27a1.2 1.2 0 0 1-1.3.255c-.452-.183-.73-.614-.73-1.092V26.825l15.977-15.888H64z" fill="#e34b5f"></path><path d="M53.407.347c-.463-.463-1.213-.463-1.676 0L32 20.077h-.274v22.27l.274.585 31.996-31.997z" fill="#e7ce9c"></path><path d="M0 42.032a2.96 2.96 0 0 0 .866 2.096l13.27 13.27a1.2 1.2 0 0 0 1.3.255c.452-.183.73-.614.73-1.092V26.825L.184 10.937H0z" fill="#1e7889"></path><path d="M12.266.347c-.463-.463-1.213-.463-1.676 0L0 10.937l31.998 32V20.08z" fill="#97baa6"></path></g></symbol></svg>